<mxfile host="app.diagrams.net" modified="2023-07-22T18:51:54.361Z" agent="Mozilla/5.0 (Macintosh; Intel Mac OS X 10_15_7) AppleWebKit/537.36 (KHTML, like Gecko) Chrome/115.0.0.0 Safari/537.36" etag="zbd0ziL1VJmcpsvHLVW8" version="21.6.5" type="device">
  <diagram id="IYWuIBX9pT0ewRRFVs_7" name="Sayfa -1">
    <mxGraphModel dx="2562" dy="1109" grid="1" gridSize="10" guides="1" tooltips="1" connect="1" arrows="1" fold="1" page="1" pageScale="1" pageWidth="827" pageHeight="1169" math="0" shadow="0">
      <root>
        <mxCell id="0" />
        <mxCell id="1" parent="0" />
        <mxCell id="zD_XHFEE8OoRs3CVyitt-25" value="" style="whiteSpace=wrap;html=1;aspect=fixed;" parent="1" vertex="1">
          <mxGeometry x="-200" width="1200" height="1200" as="geometry" />
        </mxCell>
        <mxCell id="zD_XHFEE8OoRs3CVyitt-2" value="" style="rounded=0;whiteSpace=wrap;html=1;" parent="1" vertex="1">
          <mxGeometry x="40" y="40" width="240" height="280" as="geometry" />
        </mxCell>
        <mxCell id="zD_XHFEE8OoRs3CVyitt-3" value="&lt;font style=&quot;font-size: 18px;&quot;&gt;Product Service&lt;/font&gt;" style="whiteSpace=wrap;html=1;aspect=fixed;" parent="1" vertex="1">
          <mxGeometry x="115" y="135" width="90" height="90" as="geometry" />
        </mxCell>
        <mxCell id="zD_XHFEE8OoRs3CVyitt-7" value="" style="rounded=0;whiteSpace=wrap;html=1;" parent="1" vertex="1">
          <mxGeometry x="520" y="40" width="240" height="280" as="geometry" />
        </mxCell>
        <mxCell id="zD_XHFEE8OoRs3CVyitt-8" value="&lt;font style=&quot;font-size: 18px;&quot;&gt;User Service&lt;/font&gt;" style="whiteSpace=wrap;html=1;aspect=fixed;" parent="1" vertex="1">
          <mxGeometry x="595" y="135" width="90" height="90" as="geometry" />
        </mxCell>
        <mxCell id="zD_XHFEE8OoRs3CVyitt-12" value="" style="rounded=0;whiteSpace=wrap;html=1;" parent="1" vertex="1">
          <mxGeometry x="40" y="554" width="240" height="280" as="geometry" />
        </mxCell>
        <mxCell id="zD_XHFEE8OoRs3CVyitt-13" value="&lt;font style=&quot;font-size: 18px;&quot;&gt;Order Service&lt;/font&gt;" style="whiteSpace=wrap;html=1;aspect=fixed;" parent="1" vertex="1">
          <mxGeometry x="115" y="649" width="90" height="90" as="geometry" />
        </mxCell>
        <mxCell id="zD_XHFEE8OoRs3CVyitt-16" value="" style="rounded=0;whiteSpace=wrap;html=1;" parent="1" vertex="1">
          <mxGeometry x="520" y="554" width="240" height="280" as="geometry" />
        </mxCell>
        <mxCell id="zD_XHFEE8OoRs3CVyitt-17" value="&lt;font style=&quot;font-size: 18px;&quot;&gt;Payment Service&lt;/font&gt;" style="whiteSpace=wrap;html=1;aspect=fixed;" parent="1" vertex="1">
          <mxGeometry x="595" y="640" width="90" height="90" as="geometry" />
        </mxCell>
        <mxCell id="zD_XHFEE8OoRs3CVyitt-20" value="&lt;font style=&quot;font-size: 18px;&quot;&gt;Discovery Service&lt;br&gt;Eurake&lt;/font&gt;" style="whiteSpace=wrap;html=1;aspect=fixed;" parent="1" vertex="1">
          <mxGeometry x="320" y="360" width="160" height="160" as="geometry" />
        </mxCell>
        <mxCell id="zD_XHFEE8OoRs3CVyitt-21" value="" style="endArrow=classic;html=1;rounded=0;exitX=0.5;exitY=1;exitDx=0;exitDy=0;" parent="1" source="zD_XHFEE8OoRs3CVyitt-16" target="zD_XHFEE8OoRs3CVyitt-22" edge="1">
          <mxGeometry width="50" height="50" relative="1" as="geometry">
            <mxPoint x="630" y="880" as="sourcePoint" />
            <mxPoint x="640" y="940" as="targetPoint" />
          </mxGeometry>
        </mxCell>
        <mxCell id="zD_XHFEE8OoRs3CVyitt-22" value="&lt;font style=&quot;font-size: 18px;&quot;&gt;Notification Service&lt;br&gt;Rabbitmq&lt;/font&gt;" style="whiteSpace=wrap;html=1;aspect=fixed;" parent="1" vertex="1">
          <mxGeometry x="555.5" y="1000" width="169" height="169" as="geometry" />
        </mxCell>
        <mxCell id="zD_XHFEE8OoRs3CVyitt-23" value="&lt;p style=&quot;margin: 0cm; font-family: Calibri, sans-serif; text-align: start; text-indent: 35.4pt;&quot; class=&quot;MsoNormal&quot;&gt;&lt;font style=&quot;font-size: 18px;&quot;&gt;Asynchronous messaging&lt;/font&gt;&lt;/p&gt;" style="text;html=1;align=center;verticalAlign=middle;resizable=0;points=[];autosize=1;strokeColor=none;fillColor=none;" parent="1" vertex="1">
          <mxGeometry x="605" y="903" width="280" height="40" as="geometry" />
        </mxCell>
        <mxCell id="zD_XHFEE8OoRs3CVyitt-26" value="" style="endArrow=classic;startArrow=classic;html=1;rounded=0;exitX=0.5;exitY=0;exitDx=0;exitDy=0;entryX=0;entryY=0.75;entryDx=0;entryDy=0;" parent="1" source="zD_XHFEE8OoRs3CVyitt-12" target="zD_XHFEE8OoRs3CVyitt-20" edge="1">
          <mxGeometry width="50" height="50" relative="1" as="geometry">
            <mxPoint x="330" y="590" as="sourcePoint" />
            <mxPoint x="380" y="540" as="targetPoint" />
            <Array as="points">
              <mxPoint x="160" y="480" />
            </Array>
          </mxGeometry>
        </mxCell>
        <mxCell id="zD_XHFEE8OoRs3CVyitt-27" value="" style="endArrow=classic;startArrow=classic;html=1;rounded=0;exitX=0.5;exitY=1;exitDx=0;exitDy=0;entryX=0;entryY=0.25;entryDx=0;entryDy=0;" parent="1" source="zD_XHFEE8OoRs3CVyitt-2" target="zD_XHFEE8OoRs3CVyitt-20" edge="1">
          <mxGeometry width="50" height="50" relative="1" as="geometry">
            <mxPoint x="180" y="400" as="sourcePoint" />
            <mxPoint x="230" y="350" as="targetPoint" />
            <Array as="points">
              <mxPoint x="160" y="400" />
            </Array>
          </mxGeometry>
        </mxCell>
        <mxCell id="zD_XHFEE8OoRs3CVyitt-28" value="" style="endArrow=classic;startArrow=classic;html=1;rounded=0;entryX=0.5;entryY=1;entryDx=0;entryDy=0;exitX=1;exitY=0.25;exitDx=0;exitDy=0;" parent="1" source="zD_XHFEE8OoRs3CVyitt-20" target="zD_XHFEE8OoRs3CVyitt-7" edge="1">
          <mxGeometry width="50" height="50" relative="1" as="geometry">
            <mxPoint x="600" y="430" as="sourcePoint" />
            <mxPoint x="650" y="380" as="targetPoint" />
            <Array as="points">
              <mxPoint x="640" y="400" />
            </Array>
          </mxGeometry>
        </mxCell>
        <mxCell id="zD_XHFEE8OoRs3CVyitt-29" value="" style="endArrow=classic;startArrow=classic;html=1;rounded=0;exitX=1;exitY=0.75;exitDx=0;exitDy=0;entryX=0.5;entryY=0;entryDx=0;entryDy=0;" parent="1" source="zD_XHFEE8OoRs3CVyitt-20" target="zD_XHFEE8OoRs3CVyitt-16" edge="1">
          <mxGeometry width="50" height="50" relative="1" as="geometry">
            <mxPoint x="610" y="500" as="sourcePoint" />
            <mxPoint x="660" y="450" as="targetPoint" />
            <Array as="points">
              <mxPoint x="640" y="480" />
            </Array>
          </mxGeometry>
        </mxCell>
        <mxCell id="zD_XHFEE8OoRs3CVyitt-30" value="" style="shape=flexArrow;endArrow=classic;html=1;rounded=0;entryX=0;entryY=0.5;entryDx=0;entryDy=0;" parent="1" target="zD_XHFEE8OoRs3CVyitt-25" edge="1">
          <mxGeometry width="50" height="50" relative="1" as="geometry">
            <mxPoint x="-670" y="600" as="sourcePoint" />
            <mxPoint x="-70" y="570" as="targetPoint" />
          </mxGeometry>
        </mxCell>
        <mxCell id="zD_XHFEE8OoRs3CVyitt-31" value="&lt;font style=&quot;font-size: 18px;&quot;&gt;Api Gateway&lt;/font&gt;" style="whiteSpace=wrap;html=1;aspect=fixed;" parent="1" vertex="1">
          <mxGeometry x="-200" y="525" width="150" height="150" as="geometry" />
        </mxCell>
        <mxCell id="zD_XHFEE8OoRs3CVyitt-32" value="" style="endArrow=classic;html=1;rounded=0;exitX=0.5;exitY=1;exitDx=0;exitDy=0;" parent="1" source="zD_XHFEE8OoRs3CVyitt-31" target="zD_XHFEE8OoRs3CVyitt-33" edge="1">
          <mxGeometry width="50" height="50" relative="1" as="geometry">
            <mxPoint x="-120" y="620" as="sourcePoint" />
            <mxPoint x="-120" y="800" as="targetPoint" />
          </mxGeometry>
        </mxCell>
        <mxCell id="zD_XHFEE8OoRs3CVyitt-33" value="&lt;font style=&quot;font-size: 18px;&quot;&gt;Auth Server&lt;br&gt;KeyClock&lt;/font&gt;" style="whiteSpace=wrap;html=1;aspect=fixed;" parent="1" vertex="1">
          <mxGeometry x="-200" y="770" width="150" height="150" as="geometry" />
        </mxCell>
        <mxCell id="zD_XHFEE8OoRs3CVyitt-34" value="&lt;font style=&quot;font-size: 18px;&quot;&gt;Redis&lt;/font&gt;" style="whiteSpace=wrap;html=1;aspect=fixed;" parent="1" vertex="1">
          <mxGeometry x="70" y="920" width="180" height="180" as="geometry" />
        </mxCell>
        <mxCell id="Pe4q_i5vTl5w1wtI57kw-1" value="&lt;font style=&quot;font-size: 18px;&quot;&gt;Shared&amp;nbsp;&lt;br&gt;Database&lt;br&gt;PostgreSql&lt;br&gt;&lt;/font&gt;" style="whiteSpace=wrap;html=1;aspect=fixed;" vertex="1" parent="1">
          <mxGeometry x="827" y="340" width="150" height="150" as="geometry" />
        </mxCell>
      </root>
    </mxGraphModel>
  </diagram>
</mxfile>
